<svg width="66" height="24" viewBox="0 0 66 24" fill="none" xmlns="http://www.w3.org/2000/svg">
<g clip-path="url(#clip0_187_171)">
<path fill-rule="evenodd" clip-rule="evenodd" d="M14.062 18.5H6.25C5.8358 18.5 5.5 18.1642 5.5 17.75V6.25C5.5 5.8358 5.8358 5.5 6.25 5.5H13.562C16.562 5.5 18.312 7 18.312 9.25C18.312 10.2316 17.8362 11.0704 17.1129 11.7043C18.1698 12.3182 18.812 13.3334 18.812 14.75C18.812 17.25 16.5473 18.5 14.062 18.5ZM9 13.125C9 13.056 9.05595 13 9.125 13H13.5C14.6772 13 15.5 13.5 15.5 14.5C15.5 15.5 14.7727 16 13.5 16H9.125C9.05595 16 9 15.944 9 15.875V13.125ZM13.625 10.5C14.5 10.5 15 10 15 9.25C15 8.5 14.4344 8 13.625 8H9.125C9.05595 8 9 8.05595 9 8.125V10.375C9 10.444 9.05595 10.5 9.125 10.5H13.625ZM32 18.5H30C29.5858 18.5 29.25 18.1642 29.25 17.75V15.625C29.25 15.556 29.194 15.5 29.125 15.5H23.268C23.2114 15.5 23.1618 15.538 23.1472 15.5928L22.5205 17.9433C22.4329 18.2716 22.1356 18.5 21.7958 18.5H19.7262C19.2334 18.5 18.8745 18.0329 19.0015 17.5567L21.3256 8.8406C21.8508 6.8707 23.6349 5.5 25.6737 5.5H32C32.4142 5.5 32.75 5.8358 32.75 6.25V17.75C32.75 18.1642 32.4142 18.5 32 18.5ZM24.0014 13H29.125C29.194 13 29.25 12.944 29.25 12.875V8.125C29.25 8.05595 29.194 8 29.125 8H26.7085C25.8025 8 25.0096 8.60915 24.7761 9.48465L23.8806 12.8427C23.8594 12.9221 23.9192 13 24.0014 13ZM34.2812 14.4261C34.0704 14.5766 33.965 14.8295 33.965 15.1848C33.965 16.1363 34.4618 16.9312 35.4554 17.5696C36.4491 18.2019 37.5632 18.5 38.7977 18.5H41.5348C43.6305 18.5 45.109 18.2471 45.9701 17.5967C46.8373 16.9403 47.2709 16.0069 47.2709 14.7964C47.2709 13.9111 46.9337 13.1734 46.2592 12.5833C45.5908 11.9871 44.7747 11.5595 43.8112 11.3006C42.8476 11.0416 41.8871 10.8218 40.9296 10.6411C39.9781 10.4545 39.1651 10.2407 38.4907 9.99975C37.8222 9.75885 37.4879 9.44875 37.4879 9.06935C37.4879 8.3768 38.0179 8 39.0778 8H41.7968C42.7844 8 43.4198 8.3828 43.7028 8.979C43.9859 9.56915 44.3983 9.86425 44.9403 9.86425H46.0153C46.25 9.86425 46.4097 9.78595 46.6205 9.6294C46.8313 9.4728 46.9367 9.2169 46.9367 8.86155C46.9367 7.91005 46.4398 7.11815 45.4462 6.48585C44.4585 5.8475 43.3475 5.5 42.1129 5.5H39.8185C37.7168 5.5 36.2353 5.80235 35.3742 6.45875C34.513 7.10915 34.0825 8.03955 34.0825 9.25C34.0825 9.9064 34.2601 10.4785 34.6154 10.9663C34.9767 11.4481 35.4465 11.8274 36.0246 12.1045C36.6027 12.3815 37.235 12.6224 37.9216 12.8272C38.6141 13.0319 39.3097 13.2035 40.0082 13.342C40.7068 13.4745 41.3451 13.6101 41.9232 13.7486C43.218 14.0497 43.8654 14.4622 43.8654 14.9861C43.8654 15.6786 43.3354 16 42.2756 16H39.1139C38.1263 16 37.491 15.6666 37.2079 15.0764C36.9249 14.4862 36.5123 14.1911 35.9703 14.1911H34.8954C34.6511 14.1911 34.492 14.2695 34.2812 14.4261ZM60 6.25V7.25C60 7.6642 59.6642 8 59.25 8H52.125C52.056 8 52 8.05595 52 8.125V10.375C52 10.444 52.056 10.5 52.125 10.5H58.25C58.6642 10.5 59 10.8358 59 11.25V12.25C59 12.6642 58.6642 13 58.25 13H52.125C52.056 13 52 13.056 52 13.125V15.875C52 15.944 52.056 16 52.125 16H59.25C59.6642 16 60 16.3358 60 16.75V17.75C60 18.1642 59.6642 18.5 59.25 18.5H49.25C48.8358 18.5 48.5 18.1642 48.5 17.75V6.25C48.5 5.8358 48.8358 5.5 49.25 5.5H59.25C59.6642 5.5 60 5.8358 60 6.25Z" fill="#FAFEFF" fill-opacity="0.97"/>
<path d="M59.25 2.5C61.3177 2.5 63 4.18225 63 6.25V17.75C63 19.8177 61.3177 21.5 59.25 21.5H6.25C4.18225 21.5 2.5 19.8177 2.5 17.75V6.25C2.5 4.18225 4.18225 2.5 6.25 2.5H59.25ZM59.25 0H6.25C2.7982 0 0 2.7982 0 6.25V17.75C0 21.2018 2.7982 24 6.25 24H59.25C62.7018 24 65.5 21.2018 65.5 17.75V6.25C65.5 2.7982 62.7018 0 59.25 0Z" fill="#FAFEFF" fill-opacity="0.56"/>
</g>
<defs>
<clipPath id="clip0_187_171">
<rect width="65.5" height="24" fill="white"/>
</clipPath>
</defs>
</svg>
